# xmcd
#
# Track frame offsets: 
#        225
#        21449
#        39023
#        63905
#        82062
#        95318
#        126515
#        139396
#        175350
#        188551
#        220107
#        238224
#        268079
#        281829
#        305508
#
# Disc length: 4355 seconds
#
# Revision: 11
# Processed by: cddbd v1.4PL0 Copyright (c) Steve Scherf et al.
# Submitted via: ExactAudioCopy v0.90b4
#
DISCID=e111000f
DTITLE=Eric Clapton - Blues [CD1 - Studio Disc)
DYEAR=1999
DGENRE=Blues
TTITLE0=Before You Accuse Me (Take a Look at Yourself) version 1
TTITLE1=Mean Old World
TTITLE2=Ain't That Loving You
TTITLE3=The Sky Is Crying
TTITLE4=Cryin'
TTITLE5=Have You Ever Loved A Woman
TTITLE6=Alberta
TTITLE7=Early in the Morning
TTITLE8=Give Me Strength
TTITLE9=Meet Me (Down At The Bottom)
TTITLE10=County Jail Blues
TTITLE11=Floating Bridge
TTITLE12=Blow Wind Blow
TTITLE13=To Make Somebody Happy
TTITLE14=Before You Accuse Me (Take A Look At Yourself) version 2
EXTD=YEAR: 1999
EXTT0=
EXTT1=
EXTT2=
EXTT3=
EXTT4=
EXTT5=
EXTT6=
EXTT7=
EXTT8=
EXTT9=
EXTT10=
EXTT11=
EXTT12=
EXTT13=
EXTT14=
PLAYORDER=
